<svg xmlns="http://www.w3.org/2000/svg" x="0px" y="0px" width="100" height="100" viewBox="0,0,256,256">
  <g fill="#1DC071" fill-rule="nonzero" stroke="none" stroke-width="1" stroke-linecap="butt" stroke-linejoin="miter" stroke-miterlimit="10" stroke-dasharray="" stroke-dashoffset="0" font-family="none" font-weight="none" font-size="none" text-anchor="none" style="mix-blend-mode: normal">
    <g transform="scale(10.66667,10.66667)">
      <path d="M5.414,18l1.293,-1.293l0.293,-0.293v-0.414v-6c0,-2.757 2.243,-5 5,-5c2.757,0 5,2.243 5,5v6v0.414l0.293,0.293l1.293,1.293z" opacity="0.3"></path>
      <path d="M13.5,5h-3v-1.5c0,-0.828 0.672,-1.5 1.5,-1.5v0c0.828,0 1.5,0.672 1.5,1.5z"></path>
      <path d="M12,6c2.206,0 4,1.794 4,4v6v0.828l0.172,0.172h-8.344l0.172,-0.172v-0.828v-6c0,-2.206 1.794,-4 4,-4M12,4v0c-3.314,0 -6,2.686 -6,6v6l-2,2v1h16v-1l-2,-2v-6c0,-3.314 -2.686,-6 -6,-6z"></path>
      <path d="M12,18c-1.10457,0 -2,0.89543 -2,2c0,1.10457 0.89543,2 2,2c1.10457,0 2,-0.89543 2,-2c0,-1.10457 -0.89543,-2 -2,-2z"></path>
    </g>
  </g>
</svg>